<svg width="40" height="39" viewBox="0 0 40 39" fill="none" xmlns="http://www.w3.org/2000/svg">
<path d="M10 38.3333C8.61111 38.3333 7.43056 37.8472 6.45833 36.875C5.48611 35.9028 5 34.7222 5 33.3333C5 31.9444 5.48611 30.7639 6.45833 29.7916C7.43056 28.8194 8.61111 28.3333 10 28.3333C10.3889 28.3333 10.75 28.375 11.0833 28.4583C11.4167 28.5416 11.7361 28.6528 12.0417 28.7916L14.4167 25.8333C13.6389 24.9722 13.0972 24 12.7917 22.9166C12.4861 21.8333 12.4167 20.75 12.5833 19.6666L9.20833 18.5416C8.73611 19.2361 8.13889 19.7916 7.41667 20.2083C6.69444 20.625 5.88889 20.8333 5 20.8333C3.61111 20.8333 2.43056 20.3472 1.45833 19.375C0.486111 18.4028 0 17.2222 0 15.8333C0 14.4444 0.486111 13.2639 1.45833 12.2916C2.43056 11.3194 3.61111 10.8333 5 10.8333C6.38889 10.8333 7.56944 11.3194 8.54167 12.2916C9.51389 13.2639 10 14.4444 10 15.8333C10 15.8889 10 15.9444 10 16C10 16.0555 10 16.1111 10 16.1666L13.375 17.3333C13.9306 16.3333 14.6736 15.4861 15.6042 14.7916C16.5347 14.0972 17.5833 13.6528 18.75 13.4583V9.83331C17.6667 9.52776 16.7708 8.93748 16.0625 8.06248C15.3542 7.18748 15 6.16665 15 4.99998C15 3.61109 15.4861 2.43053 16.4583 1.45831C17.4306 0.48609 18.6111 -2.14875e-05 20 -2.14875e-05C21.3889 -2.14875e-05 22.5694 0.48609 23.5417 1.45831C24.5139 2.43053 25 3.61109 25 4.99998C25 6.16665 24.6389 7.18748 23.9167 8.06248C23.1944 8.93748 22.3056 9.52776 21.25 9.83331V13.4583C22.4167 13.6528 23.4653 14.0972 24.3958 14.7916C25.3264 15.4861 26.0694 16.3333 26.625 17.3333L30 16.1666C30 16.1111 30 16.0555 30 16C30 15.9444 30 15.8889 30 15.8333C30 14.4444 30.4861 13.2639 31.4583 12.2916C32.4306 11.3194 33.6111 10.8333 35 10.8333C36.3889 10.8333 37.5694 11.3194 38.5417 12.2916C39.5139 13.2639 40 14.4444 40 15.8333C40 17.2222 39.5139 18.4028 38.5417 19.375C37.5694 20.3472 36.3889 20.8333 35 20.8333C34.1111 20.8333 33.2986 20.625 32.5625 20.2083C31.8264 19.7916 31.2361 19.2361 30.7917 18.5416L27.4167 19.6666C27.5833 20.75 27.5139 21.8264 27.2083 22.8958C26.9028 23.9653 26.3611 24.9444 25.5833 25.8333L27.9583 28.75C28.2639 28.6111 28.5833 28.5069 28.9167 28.4375C29.25 28.368 29.6111 28.3333 30 28.3333C31.3889 28.3333 32.5694 28.8194 33.5417 29.7916C34.5139 30.7639 35 31.9444 35 33.3333C35 34.7222 34.5139 35.9028 33.5417 36.875C32.5694 37.8472 31.3889 38.3333 30 38.3333C28.6111 38.3333 27.4306 37.8472 26.4583 36.875C25.4861 35.9028 25 34.7222 25 33.3333C25 32.7778 25.0903 32.243 25.2708 31.7291C25.4514 31.2153 25.6944 30.75 26 30.3333L23.625 27.375C22.4861 28.0139 21.2708 28.3333 19.9792 28.3333C18.6875 28.3333 17.4722 28.0139 16.3333 27.375L14 30.3333C14.3056 30.75 14.5486 31.2153 14.7292 31.7291C14.9097 32.243 15 32.7778 15 33.3333C15 34.7222 14.5139 35.9028 13.5417 36.875C12.5694 37.8472 11.3889 38.3333 10 38.3333ZM5 17.5C5.47222 17.5 5.86806 17.3403 6.1875 17.0208C6.50694 16.7014 6.66667 16.3055 6.66667 15.8333C6.66667 15.3611 6.50694 14.9653 6.1875 14.6458C5.86806 14.3264 5.47222 14.1666 5 14.1666C4.52778 14.1666 4.13194 14.3264 3.8125 14.6458C3.49306 14.9653 3.33333 15.3611 3.33333 15.8333C3.33333 16.3055 3.49306 16.7014 3.8125 17.0208C4.13194 17.3403 4.52778 17.5 5 17.5ZM10 35C10.4722 35 10.8681 34.8403 11.1875 34.5208C11.5069 34.2014 11.6667 33.8055 11.6667 33.3333C11.6667 32.8611 11.5069 32.4653 11.1875 32.1458C10.8681 31.8264 10.4722 31.6666 10 31.6666C9.52778 31.6666 9.13194 31.8264 8.8125 32.1458C8.49306 32.4653 8.33333 32.8611 8.33333 33.3333C8.33333 33.8055 8.49306 34.2014 8.8125 34.5208C9.13194 34.8403 9.52778 35 10 35ZM20 6.66665C20.4722 6.66665 20.8681 6.50692 21.1875 6.18748C21.5069 5.86803 21.6667 5.4722 21.6667 4.99998C21.6667 4.52776 21.5069 4.13192 21.1875 3.81248C20.8681 3.49303 20.4722 3.33331 20 3.33331C19.5278 3.33331 19.1319 3.49303 18.8125 3.81248C18.4931 4.13192 18.3333 4.52776 18.3333 4.99998C18.3333 5.4722 18.4931 5.86803 18.8125 6.18748C19.1319 6.50692 19.5278 6.66665 20 6.66665ZM20 25C21.1667 25 22.1528 24.5972 22.9583 23.7916C23.7639 22.9861 24.1667 22 24.1667 20.8333C24.1667 19.6666 23.7639 18.6805 22.9583 17.875C22.1528 17.0694 21.1667 16.6666 20 16.6666C18.8333 16.6666 17.8472 17.0694 17.0417 17.875C16.2361 18.6805 15.8333 19.6666 15.8333 20.8333C15.8333 22 16.2361 22.9861 17.0417 23.7916C17.8472 24.5972 18.8333 25 20 25ZM30 35C30.4722 35 30.8681 34.8403 31.1875 34.5208C31.5069 34.2014 31.6667 33.8055 31.6667 33.3333C31.6667 32.8611 31.5069 32.4653 31.1875 32.1458C30.8681 31.8264 30.4722 31.6666 30 31.6666C29.5278 31.6666 29.1319 31.8264 28.8125 32.1458C28.4931 32.4653 28.3333 32.8611 28.3333 33.3333C28.3333 33.8055 28.4931 34.2014 28.8125 34.5208C29.1319 34.8403 29.5278 35 30 35ZM35 17.5C35.4722 17.5 35.8681 17.3403 36.1875 17.0208C36.5069 16.7014 36.6667 16.3055 36.6667 15.8333C36.6667 15.3611 36.5069 14.9653 36.1875 14.6458C35.8681 14.3264 35.4722 14.1666 35 14.1666C34.5278 14.1666 34.1319 14.3264 33.8125 14.6458C33.4931 14.9653 33.3333 15.3611 33.3333 15.8333C33.3333 16.3055 33.4931 16.7014 33.8125 17.0208C34.1319 17.3403 34.5278 17.5 35 17.5Z" fill="white"/>
</svg>
